<svg viewBox="0 0 22 22" fill="none" xmlns="http://www.w3.org/2000/svg"><g clip-path="url(#a)"><path d="M22.837 23.689c-.379.745-1.158 1.208-1.987 1.118a22.162 22.162 0 0 1-13.288-6.395 22.311 22.311 0 0 1-6.37-13.34c-.09-.831.372-1.614 1.115-1.994l3.25-1.663c1.258-.643 2.78.107 3.223 1.454a22.064 22.064 0 0 0 1.532 3.567c.485.9.158 2.056-.77 2.48-1.349.615-1.67 2.393-.623 3.444l4.671 4.69a2.117 2.117 0 0 0 3.431-.625c.446-.983 1.653-1.34 2.611-.848a21.748 21.748 0 0 0 3.462 1.415c1.365.427 2.14 1.973 1.491 3.252l-1.748 3.445Z" stroke="#2D383F" stroke-linecap="round" stroke-linejoin="round"/></g><defs><clipPath id="a"><path fill="#fff" d="M0 0h26v26H0z"/></clipPath></defs></svg>
