<svg xmlns="http://www.w3.org/2000/svg" xmlns:xlink="http://www.w3.org/1999/xlink"><defs><clipPath id="a"><path d="M0 0h205v62H0z"/></clipPath><clipPath id="a"><path fill="#fff" d="M0 0h12v12H0z"/></clipPath><clipPath id="a"><path fill="#fff" d="M0 0h12v12H0z"/></clipPath><clipPath id="a"><path fill="#fff" d="M0 0h15v14H0z"/></clipPath><clipPath id="a"><path fill="#fff" d="M0 0h25v25H0z"/></clipPath><clipPath id="a"><path fill="#fff" transform="translate(1 1)" d="M0 0h23v23H0z"/></clipPath><clipPath id="a"><path fill="#fff" d="M0 0h25v25H0z"/></clipPath></defs><symbol id="audio-like" viewBox="0 0 17 17"><g fill="none"><path d="M14.323 4.708a4.315 4.315 0 0 0-.944-1.374 4.405 4.405 0 0 0-3.095-1.258 4.434 4.434 0 0 0-2.784.98 4.434 4.434 0 0 0-2.784-.981A4.405 4.405 0 0 0 1.62 3.334 4.29 4.29 0 0 0 .328 6.4c0 .553.113 1.129.337 1.715.188.49.457.998.8 1.51.545.812 1.294 1.66 2.223 2.517a24.85 24.85 0 0 0 3.131 2.446l.394.252a.533.533 0 0 0 .573 0l.393-.252a25.177 25.177 0 0 0 3.131-2.446c.93-.858 1.678-1.705 2.223-2.516a7.589 7.589 0 0 0 .8-1.511A4.804 4.804 0 0 0 14.67 6.4a4.226 4.226 0 0 0-.347-1.692ZM7.5 13.527S1.59 9.74 1.59 6.4c0-1.692 1.4-3.063 3.126-3.063 1.213 0 2.266.677 2.784 1.667a3.135 3.135 0 0 1 2.784-1.667c1.727 0 3.126 1.371 3.126 3.063 0 3.34-5.91 7.127-5.91 7.127Z" fill="#1C3374"/></g></symbol><symbol id="audio-next"><g fill="currentColor"><path d="M3.438 2.75c.12 0 .24.032.344.093l13.062 7.562a.687.687 0 0 1 0 1.19L3.782 19.157a.687.687 0 0 1-1.032-.595V3.438a.688.688 0 0 1 .688-.687Zm17.187 16.5H19.25V2.75h1.375v16.5Z"/></g></symbol><symbol id="audio-order" viewBox="0 0 25 25"><g fill="none"><path d="M23.213 17.412a.791.791 0 0 1 0 1.113l-2.344 2.344a.8.8 0 0 1-1.113 0 .79.79 0 0 1 0-1.113l1.015-1.006H19.62a7.051 7.051 0 0 1-5.723-2.95l-4.072-5.693a5.479 5.479 0 0 0-4.443-2.294H3.125a.781.781 0 0 1 0-1.563h2.256a7.05 7.05 0 0 1 5.723 2.95l4.072 5.693a5.478 5.478 0 0 0 4.443 2.294h1.152l-1.015-1.005a.791.791 0 0 1 1.113-1.114l2.344 2.344Zm-9.248-6.963a.781.781 0 0 0 1.094-.185l.117-.157a5.479 5.479 0 0 1 4.443-2.294h1.152l-1.015 1.005a.791.791 0 0 0 0 1.114.8.8 0 0 0 1.113 0l2.344-2.344a.791.791 0 0 0 0-1.113L20.869 4.13a.791.791 0 0 0-1.113 1.113L20.77 6.25H19.62a7.05 7.05 0 0 0-5.723 2.95l-.107.155a.78.78 0 0 0 .176 1.094Zm-2.93 4.102a.781.781 0 0 0-1.094.185l-.117.157a5.478 5.478 0 0 1-4.443 2.294H3.125a.781.781 0 1 0 0 1.563h2.256a7.052 7.052 0 0 0 5.723-2.95l.107-.155a.779.779 0 0 0-.176-1.094Z" fill="#1C3374"/></g></symbol><symbol id="audio-play" viewBox="0 0 47 47"><g fill="currentColor"><path d="M47 23.5a23.5 23.5 0 1 1-47 0 23.5 23.5 0 0 1 47 0Zm-27.054-8.54a1.468 1.468 0 0 0-2.321 1.196v14.688a1.468 1.468 0 0 0 2.32 1.195l10.282-7.343a1.469 1.469 0 0 0 0-2.392l-10.281-7.343Z"/></g></symbol><symbol id="audio-prev" viewBox="0 0 22 22"><g fill="currentColor"><path d="M18.563 19.25a.685.685 0 0 1-.345-.093L5.156 11.595a.687.687 0 0 1 0-1.19l13.062-7.562a.687.687 0 0 1 1.032.595v15.124a.687.687 0 0 1-.688.688ZM1.375 2.75H2.75v16.5H1.375V2.75Z"/></g></symbol><symbol id="audio-repeat" viewBox="0 0 25 25"><g fill="none"><path d="M20.145 8.185a6.25 6.25 0 0 1-4.21 10.558l-.31.008-5.146-.002 1.794 1.795a.781.781 0 0 1 .09.997l-.09.108a.78.78 0 0 1-.997.09l-.108-.09-3.128-3.128a.781.781 0 0 1-.089-.997l.09-.108 3.127-3.128a.781.781 0 0 1 1.196.997l-.091.11-1.794 1.791h5.146a4.687 4.687 0 0 0 4.68-4.41l.007-.275a4.672 4.672 0 0 0-1.353-3.296.782.782 0 0 1 1.075-1.133l.112.113h-.001Zm-6.42-4.924.109.09 3.127 3.128.09.11a.78.78 0 0 1 0 .887l-.09.109-3.127 3.126-.11.091a.781.781 0 0 1-.887 0l-.11-.09-.088-.11a.781.781 0 0 1 0-.887l.089-.11 1.793-1.792H9.375a4.688 4.688 0 0 0-4.68 4.413l-.008.275c0 1.28.514 2.44 1.345 3.287a.781.781 0 0 1-1.115 1.09 6.25 6.25 0 0 1 4.145-10.62l.313-.007 5.146-.002-1.793-1.792-.09-.11a.781.781 0 0 1 1.087-1.086Z" fill="#1C3374"/></g></symbol><symbol id="audio-share" viewBox="0 0 17 17"><g fill="none"><path d="M8.5 2.125v8.5m0-8.5L5.667 4.958M8.5 2.125l2.834 2.833m-9.917 7.084.44 1.76a1.417 1.417 0 0 0 1.374 1.073H13.77a1.416 1.416 0 0 0 1.374-1.073l.44-1.76" stroke="#1C3374" stroke-width="1.167" stroke-linecap="round" stroke-linejoin="round"/></g></symbol><symbol id="header-logo-desktop" viewBox="0 0 205 62"><g fill="currentColor"><title id="title">&#x41b;&#x43e;&#x433;&#x43e;&#x442;&#x438;&#x43f; Lifetour.</title><g clip-path="url(#a)"><path d="m22.71 40.218 5.44-5.736 6.189 5.736h10.607L28.083 23.625 11.355 40.218h11.356Z"/><path d="m38.283 13.588-8.024 8.194 5.304 5.462 2.72-2.73 14.891 14.885c-3.4 9.081-12.103 15.568-22.371 15.568C17.61 54.967 6.936 44.247 6.936 31 7.004 17.753 17.679 7.033 30.87 7.033c11.695 0 21.487 8.535 23.46 19.665l7.207 7.648c.136-1.093.204-2.253.204-3.346 0-8.262-3.196-16.046-9.044-21.919C46.85 3.21 39.098 0 30.871 0 22.575 0 14.89 3.21 9.044 9.082 3.196 14.954 0 22.67 0 31s3.196 16.046 9.044 21.919C14.892 58.79 22.644 62 30.87 62c8.228 0 15.98-3.21 21.827-9.081 3.604-3.62 6.188-7.921 7.616-12.633.272-.819.476-1.707.68-2.526l-6.256-6.623-16.455-17.549ZM87.214 19.92h4.54l-2.477 12.502h7.658l-.734 3.615H84.004l3.21-16.117ZM101.208 19.92h4.539l-3.209 16.117h-4.54l3.21-16.117ZM112.806 23.443l-.711 3.546h7.085l-.711 3.522h-7.061l-1.101 5.526h-4.54l3.21-16.117h12.565l-.711 3.523h-8.025ZM127.448 23.443l-.527 2.717h7.13l-.665 3.407h-7.153l-.574 2.947h8.415l-.734 3.523h-12.862l3.21-16.117h12.564l-.711 3.523h-8.093ZM141.775 23.535h-4.93l.734-3.615h14.376l-.734 3.615h-4.906l-2.5 12.502h-4.539l2.499-12.502ZM158.879 36.36c-1.62 0-3.034-.3-4.242-.899-1.192-.598-2.117-1.435-2.774-2.51-.642-1.074-.963-2.302-.963-3.683 0-1.842.42-3.5 1.261-4.973a9.068 9.068 0 0 1 3.554-3.454c1.528-.829 3.263-1.243 5.204-1.243 1.621 0 3.027.3 4.219.898 1.208.599 2.132 1.435 2.774 2.51.658 1.074.986 2.302.986 3.683 0 1.842-.428 3.5-1.284 4.973-.84 1.474-2.025 2.625-3.553 3.454-1.514.829-3.241 1.243-5.182 1.243Zm.39-3.777c1.009 0 1.895-.253 2.659-.76a5.033 5.033 0 0 0 1.766-2.026c.412-.859.619-1.803.619-2.831 0-1.09-.336-1.957-1.009-2.602-.657-.66-1.582-.99-2.774-.99-1.009 0-1.896.253-2.66.76a4.997 4.997 0 0 0-1.765 2.049c-.413.844-.619 1.78-.619 2.809 0 1.09.328 1.964.985 2.624.673.645 1.605.967 2.798.967ZM177.421 36.36c-1.391 0-2.591-.231-3.6-.691-1.009-.476-1.781-1.152-2.316-2.026-.535-.875-.802-1.904-.802-3.086 0-.49.061-1.059.183-1.703l1.789-8.934h4.539l-1.765 8.864c-.092.461-.138.883-.138 1.267 0 1.688.887 2.532 2.66 2.532.963 0 1.719-.291 2.27-.874.565-.6.986-1.574 1.261-2.924l1.765-8.865h4.471l-1.811 9.14c-.978 4.866-3.814 7.3-8.506 7.3ZM204.157 25.055c0 1.473-.389 2.747-1.169 3.822-.779 1.059-1.872 1.834-3.279 2.325l2.729 4.835h-4.746l-2.385-4.282h-2.292l-.849 4.282h-4.539l3.209-16.117h6.856c2.048 0 3.638.453 4.769 1.359 1.131.905 1.696 2.164 1.696 3.776Zm-4.585.437c0-.66-.222-1.151-.665-1.473-.443-.338-1.062-.507-1.857-.507h-2.385l-.963 4.72h2.706c1.009 0 1.788-.238 2.338-.714.551-.476.826-1.151.826-2.026ZM87.026 51.233a3.105 3.105 0 0 1-1.507-.368 2.78 2.78 0 0 1-1.053-1.025 2.86 2.86 0 0 1-.374-1.458c0-.54.125-1.025.374-1.457a2.721 2.721 0 0 1 1.053-1.017c.452-.251.954-.377 1.507-.377.553 0 1.05.123 1.492.369.446.245.797.587 1.052 1.025.256.432.383.918.383 1.457 0 .54-.127 1.028-.383 1.466a2.722 2.722 0 0 1-1.052 1.017 3.014 3.014 0 0 1-1.492.368Zm0-.528c.442 0 .84-.1 1.197-.297.356-.203.635-.48.837-.833.202-.357.303-.755.303-1.193a2.34 2.34 0 0 0-.303-1.185 2.134 2.134 0 0 0-.837-.833 2.374 2.374 0 0 0-1.197-.304c-.44 0-.842.101-1.204.304a2.189 2.189 0 0 0-.845.833 2.34 2.34 0 0 0-.303 1.185c0 .438.1.836.303 1.193.207.353.489.63.845.833.362.198.763.297 1.204.297ZM93.387 46.94c.393 0 .75.091 1.069.273.319.176.569.427.75.753.18.325.27.696.27 1.113 0 .422-.09.795-.27 1.121-.181.326-.431.58-.75.76-.314.177-.67.265-1.069.265-.34 0-.649-.07-.925-.208a1.789 1.789 0 0 1-.67-.625v2.347h-.566v-5.766h.542v.833c.17-.278.394-.492.67-.641.282-.15.598-.224.949-.224Zm-.04 3.78c.293 0 .558-.066.798-.2a1.44 1.44 0 0 0 .558-.584c.138-.251.207-.537.207-.857 0-.32-.069-.603-.207-.849a1.44 1.44 0 0 0-.558-.585 1.56 1.56 0 0 0-.798-.208c-.298 0-.566.07-.805.208-.234.14-.42.334-.559.585-.133.246-.199.529-.199.849 0 .32.066.606.2.857.138.25.324.446.558.584.239.134.507.2.805.2ZM99.66 47.477h-2.4v3.708h-.567v-4.212h2.967v.504ZM101.921 46.94c.548 0 .968.14 1.26.417.293.272.439.678.439 1.217v2.611h-.542v-.657c-.128.22-.317.39-.566.513a1.938 1.938 0 0 1-.878.184c-.468 0-.84-.112-1.116-.336a1.087 1.087 0 0 1-.415-.89c0-.357.128-.645.383-.864.26-.219.672-.328 1.236-.328h1.332v-.257c0-.363-.101-.638-.303-.825-.202-.192-.497-.288-.885-.288-.266 0-.521.046-.766.136a1.865 1.865 0 0 0-.63.36l-.255-.424c.212-.181.468-.32.765-.416.298-.102.612-.152.941-.152Zm-.199 3.837c.319 0 .593-.072.821-.217.229-.15.399-.363.511-.64v-.689h-1.316c-.718 0-1.077.25-1.077.753a.7.7 0 0 0 .279.584c.187.14.447.209.782.209ZM105.127 46.973h.567v1.866h2.639v-1.866h.566v4.212h-.566v-1.858h-2.639v1.858h-.567v-4.212ZM110.509 46.973h.566v3.347l2.799-3.347h.503v4.212h-.567v-3.347l-2.791 3.347h-.51v-4.212ZM117.955 48.99c.298.07.527.19.686.361.165.171.247.38.247.625a.964.964 0 0 1-.255.657 1.613 1.613 0 0 1-.678.448 2.828 2.828 0 0 1-.949.152c-.303 0-.601-.043-.893-.128a2.367 2.367 0 0 1-.766-.392l.192-.425c.191.144.415.256.67.336.255.08.513.12.773.12.388 0 .705-.072.949-.216.25-.15.375-.35.375-.6a.578.578 0 0 0-.303-.52c-.202-.129-.478-.193-.829-.193h-.718v-.416h.686c.313 0 .566-.06.757-.177.192-.122.287-.285.287-.488 0-.224-.109-.4-.326-.529-.213-.128-.492-.192-.838-.192-.452 0-.898.115-1.34.345l-.159-.44a3.312 3.312 0 0 1 1.555-.393c.319 0 .606.048.861.144.261.09.463.221.606.392.149.171.224.369.224.593a.826.826 0 0 1-.224.568 1.27 1.27 0 0 1-.59.369ZM121.617 46.94c.548 0 .968.14 1.26.417.293.272.439.678.439 1.217v2.611h-.543v-.657c-.127.22-.316.39-.566.513a1.933 1.933 0 0 1-.877.184c-.468 0-.84-.112-1.116-.336a1.087 1.087 0 0 1-.415-.89c0-.357.127-.645.383-.864.26-.219.672-.328 1.236-.328h1.332v-.257c0-.363-.101-.638-.304-.825-.202-.192-.497-.288-.885-.288-.266 0-.521.046-.765.136a1.865 1.865 0 0 0-.63.36l-.256-.424a2.21 2.21 0 0 1 .766-.416c.298-.102.611-.152.941-.152Zm-.199 3.837c.319 0 .593-.072.821-.217.229-.15.399-.363.511-.64v-.689h-1.316c-.718 0-1.077.25-1.077.753a.7.7 0 0 0 .279.584c.186.14.447.209.782.209ZM129.193 50.688v1.554h-.534v-1.057h-3.836v-4.212h.566v3.715h2.56v-3.715h.566v3.715h.678ZM130.275 46.973h.566v3.347l2.799-3.347h.502v4.212h-.566v-3.347l-2.791 3.347h-.51v-4.212ZM138.987 46.973v4.212h-.518v-1.393h-1.476l-.973 1.393h-.614l1.045-1.474c-.324-.09-.574-.245-.75-.464-.175-.219-.263-.496-.263-.833 0-.47.16-.827.479-1.073.319-.245.755-.368 1.308-.368h1.762Zm-2.975 1.457c0 .625.396.937 1.189.937h1.268v-1.89h-1.229c-.818 0-1.228.318-1.228.953ZM146.453 46.973v4.212h-.566v-3.708h-2.632v3.708h-.566v-4.212h3.764ZM149.793 51.225c-.404 0-.768-.09-1.093-.272a2.04 2.04 0 0 1-.765-.769 2.188 2.188 0 0 1-.279-1.105c0-.411.093-.78.279-1.105.186-.326.441-.58.765-.761a2.201 2.201 0 0 1 1.093-.272c.404 0 .768.09 1.092.272.325.181.577.435.758.76.186.326.279.695.279 1.106 0 .41-.093.78-.279 1.105a1.98 1.98 0 0 1-.758.769 2.196 2.196 0 0 1-1.092.272Zm0-.505c.298 0 .563-.066.797-.2.24-.139.426-.333.559-.584.133-.251.199-.537.199-.857 0-.32-.066-.606-.199-.857a1.386 1.386 0 0 0-.559-.577 1.53 1.53 0 0 0-.797-.208c-.298 0-.566.07-.806.208-.234.134-.42.326-.558.577-.133.25-.199.536-.199.857 0 .32.066.606.199.857.138.25.324.446.558.584.24.134.508.2.806.2ZM155.608 51.185l-1.332-1.762-1.34 1.762h-.638l1.659-2.162-1.579-2.05h.638l1.26 1.65 1.26-1.65h.622l-1.579 2.05 1.675 2.162h-.646ZM158.765 51.225a2.2 2.2 0 0 1-1.093-.272 2.05 2.05 0 0 1-.766-.769 2.188 2.188 0 0 1-.279-1.105c0-.411.093-.78.279-1.105.187-.326.442-.58.766-.761a2.198 2.198 0 0 1 1.093-.272c.404 0 .768.09 1.092.272.324.181.577.435.758.76.186.326.279.695.279 1.106 0 .41-.093.78-.279 1.105a1.987 1.987 0 0 1-.758.769 2.196 2.196 0 0 1-1.092.272Zm0-.505c.297 0 .563-.066.797-.2.239-.139.425-.333.558-.584.133-.251.2-.537.2-.857 0-.32-.067-.606-.2-.857a1.39 1.39 0 0 0-.558-.577 1.533 1.533 0 0 0-.797-.208c-.298 0-.567.07-.806.208-.234.134-.42.326-.558.577-.133.25-.199.536-.199.857 0 .32.066.606.199.857.138.25.324.446.558.584.239.134.508.2.806.2ZM166.172 50.688v1.514h-.535v-1.017h-3.756v1.017h-.534v-1.514h.239c.282-.016.473-.224.574-.624.101-.4.171-.961.208-1.682l.056-1.41h3.094v3.716h.654Zm-3.286-2.274a10.636 10.636 0 0 1-.151 1.482c-.075.384-.208.648-.399.792h2.616v-3.21h-2.018l-.048.936ZM169.006 51.225c-.404 0-.768-.09-1.093-.272a2.04 2.04 0 0 1-.765-.769 2.19 2.19 0 0 1-.28-1.105c0-.411.094-.78.28-1.105.186-.326.441-.58.765-.761a2.201 2.201 0 0 1 1.093-.272c.404 0 .768.09 1.092.272.325.181.577.435.758.76.186.326.279.695.279 1.106 0 .41-.093.78-.279 1.105a1.98 1.98 0 0 1-.758.769 2.196 2.196 0 0 1-1.092.272Zm0-.505c.297 0 .563-.066.797-.2.239-.139.426-.333.558-.584.133-.251.2-.537.2-.857 0-.32-.067-.606-.2-.857a1.383 1.383 0 0 0-.558-.577 1.533 1.533 0 0 0-.797-.208c-.298 0-.566.07-.806.208-.234.134-.42.326-.558.577-.133.25-.199.536-.199.857 0 .32.066.606.199.857.138.25.324.446.558.584.24.134.508.2.806.2ZM175.017 49.007c.569.133.853.478.853 1.033 0 .368-.136.651-.407.849-.271.197-.675.296-1.212.296h-1.906v-4.212h1.85c.479 0 .854.093 1.125.28.271.187.407.454.407.8a.94.94 0 0 1-.192.593c-.122.16-.295.28-.518.36Zm-2.122-.16h1.26c.325 0 .572-.062.742-.185.176-.122.263-.301.263-.536 0-.235-.087-.411-.263-.529-.17-.117-.417-.176-.742-.176h-1.26v1.426Zm1.332 1.89c.362 0 .633-.06.814-.177.18-.117.271-.301.271-.552 0-.251-.083-.435-.247-.553-.165-.122-.426-.184-.782-.184h-1.388v1.466h1.332ZM181.956 49.007c.569.133.853.478.853 1.033 0 .368-.135.651-.407.849-.271.197-.675.296-1.212.296h-1.906v-4.212h1.85c.479 0 .854.093 1.125.28.271.187.407.454.407.8a.94.94 0 0 1-.192.593c-.122.16-.295.28-.518.36Zm-2.121-.16h1.26c.324 0 .571-.062.741-.185.176-.122.263-.301.263-.536 0-.235-.087-.411-.263-.529-.17-.117-.417-.176-.741-.176h-1.26v1.426Zm1.331 1.89c.362 0 .633-.06.814-.177.181-.117.271-.301.271-.552 0-.251-.083-.435-.247-.553-.165-.122-.426-.184-.782-.184h-1.387v1.466h1.331ZM189.19 47.477h-2.4v3.708h-.567v-4.212h2.967v.504ZM191.544 51.225c-.404 0-.768-.09-1.092-.272a2.035 2.035 0 0 1-.766-.769 2.188 2.188 0 0 1-.279-1.105c0-.411.093-.78.279-1.105.186-.326.441-.58.766-.761a2.195 2.195 0 0 1 1.092-.272c.404 0 .768.09 1.093.272.324.181.577.435.757.76.186.326.279.695.279 1.106 0 .41-.093.78-.279 1.105-.18.326-.433.582-.757.769a2.202 2.202 0 0 1-1.093.272Zm0-.505c.298 0 .564-.066.798-.2.239-.139.425-.333.558-.584.133-.251.199-.537.199-.857 0-.32-.066-.606-.199-.857a1.39 1.39 0 0 0-.558-.577 1.534 1.534 0 0 0-.798-.208c-.298 0-.566.07-.805.208-.234.134-.42.326-.559.577-.133.25-.199.536-.199.857 0 .32.066.606.199.857.139.25.325.446.559.584.239.134.507.2.805.2ZM197.045 46.94c.393 0 .749.091 1.068.273.319.176.569.427.75.753.181.325.271.696.271 1.113 0 .422-.09.795-.271 1.121-.181.326-.431.58-.75.76-.313.177-.67.265-1.068.265-.341 0-.649-.07-.925-.208a1.779 1.779 0 0 1-.67-.625v2.347h-.566v-5.766h.542v.833a1.75 1.75 0 0 1 .67-.641 1.99 1.99 0 0 1 .949-.224Zm-.04 3.78c.292 0 .558-.066.797-.2.24-.139.426-.333.559-.584.138-.251.207-.537.207-.857 0-.32-.069-.603-.207-.849a1.438 1.438 0 0 0-.559-.585 1.559 1.559 0 0 0-.797-.208c-.298 0-.566.07-.806.208a1.51 1.51 0 0 0-.558.585 1.754 1.754 0 0 0-.199.849c0 .32.066.606.199.857.138.25.324.446.558.584.24.134.508.2.806.2ZM202.113 48.462c.526.006.928.123 1.204.353.277.23.415.56.415.993 0 .448-.149.792-.447 1.033-.297.24-.723.357-1.276.352l-1.658-.008v-4.212h.566v1.473l1.196.016Zm2.321-1.49H205v4.213h-.566v-4.212Zm-2.456 3.789c.388.005.68-.073.877-.233.202-.165.303-.405.303-.72 0-.31-.099-.54-.295-.69-.197-.149-.492-.226-.885-.231l-1.061-.016v1.874l1.061.016Z"/></g></g></symbol><symbol id="hero-feature-grade" viewBox="0 0 12 12"><g fill="none"><g clip-path="url(#a)" stroke="#fff" stroke-miterlimit="16" stroke-linecap="round"><path d="M10.91 11.455H8.944V.545h1.964v10.91ZM6.982 11.455V3.52H5.018v7.934h1.964ZM3.055 11.455v-4.96H1.09v4.96h1.964Z"/></g></g></symbol><symbol id="hero-feature-moon" viewBox="0 0 12 12"><g fill="none"><g clip-path="url(#a)"><path d="M11.197 6.754a.382.382 0 0 0-.321.07c-.362.308-.78.56-1.24.727a3.873 3.873 0 0 1-1.409.252c-1.13 0-2.16-.462-2.9-1.203a4.121 4.121 0 0 1-1.199-2.91c0-.476.084-.937.223-1.357a3.76 3.76 0 0 1 .67-1.203.358.358 0 0 0-.056-.504.382.382 0 0 0-.32-.07 5.625 5.625 0 0 0-2.956 1.987 5.553 5.553 0 0 0 .474 7.289 5.49 5.49 0 0 0 3.903 1.623 5.532 5.532 0 0 0 3.416-1.19 5.518 5.518 0 0 0 1.952-3.063c.07-.21-.042-.406-.237-.448ZM9.064 9.678A4.776 4.776 0 0 1 2.707 9.3a4.81 4.81 0 0 1-1.409-3.4c0-1.105.363-2.112.99-2.924a4.797 4.797 0 0 1 1.603-1.343 4.67 4.67 0 0 0-.46 2.07c0 1.33.544 2.547 1.408 3.415A4.809 4.809 0 0 0 8.241 8.53c.586 0 1.143-.098 1.66-.294.18-.07.362-.14.529-.224a5.087 5.087 0 0 1-1.366 1.665Z" fill="#fff"/></g></g></symbol><symbol id="icon-close" viewBox="0 0 20 20"><g fill="none"><path d="M.293 18.291a1 1 0 101.414 1.414L10 11.413l8.292 8.292a1 1 0 101.414-1.414l-8.292-8.292 8.292-8.292A1 1 0 1018.291.293L9.999 8.585 1.707.293A1 1 0 10.293 1.707L8.585 10 .293 18.291z"/></g></symbol><symbol id="ok" viewBox="0 0 9 16"><g fill="currentColor"><path d="M4.5 2.42c.916 0 1.66.767 1.66 1.71 0 .94-.744 1.708-1.66 1.708-.916 0-1.66-.767-1.66-1.708 0-.943.744-1.71 1.66-1.71Zm0 5.838c2.212 0 4.011-1.852 4.011-4.127C8.511 1.851 6.712 0 4.5 0S.492 1.852.492 4.13c0 2.276 1.796 4.128 4.008 4.128Zm1.622 3.37a7.441 7.441 0 0 0 2.328-.995 1.231 1.231 0 0 0 .37-1.667 1.154 1.154 0 0 0-1.622-.381 4.97 4.97 0 0 1-5.399 0 1.15 1.15 0 0 0-1.619.38 1.231 1.231 0 0 0 .37 1.668 7.441 7.441 0 0 0 2.328.994L.635 13.934a1.236 1.236 0 0 0 0 1.71c.232.236.53.355.83.355.301 0 .602-.119.834-.355L4.5 13.377l2.204 2.267c.458.475 1.2.475 1.66 0a1.236 1.236 0 0 0 0-1.71l-2.242-2.307Z"/></g></symbol><symbol id="reddit" viewBox="0 0 14 15"><g fill="currentColor"><path d="M8.362 0c-.45 0-.87.244-1.14.596-.27.352-.42.78-.528 1.233-.173.727-.226 1.533-.239 2.26a7.031 7.031 0 0 0-3.353 1.11c-.385-.347-.849-.54-1.294-.535-.506.006-.987.24-1.344.72C-.22 6.3-.14 7.8.65 8.692a4.816 4.816 0 0 0-.085.842C.566 12.554 3.446 15 7 15c3.553 0 6.434-2.448 6.434-5.466a4.82 4.82 0 0 0-.085-.842c.791-.891.87-2.391.187-3.308-.357-.48-.838-.714-1.345-.72-.444-.005-.908.188-1.293.535a7.029 7.029 0 0 0-3.336-1.11c.017-.67.061-1.366.187-1.89.079-.33.172-.568.272-.699.1-.131.173-.185.34-.185.365 0 .411.126.63.432.111.154.239.346.443.534.204.187.506.35.834.35V1.314c-.091 0-.108-.002-.17-.062-.062-.059-.147-.195-.272-.37C9.574.533 9.087 0 8.362 0Zm3.54.123c-.847 0-1.532.827-1.532 1.85 0 1.022.685 1.849 1.532 1.849s1.532-.827 1.532-1.85c0-1.022-.685-1.849-1.532-1.849Zm0 .658c.545 0 .987.534.987 1.192 0 .657-.442 1.191-.987 1.191-.544 0-.987-.534-.987-1.191 0-.658.443-1.192.987-1.192ZM7 5.116c3.015 0 5.566 2.027 5.566 4.418 0 2.394-2.551 4.418-5.566 4.418-3.015 0-5.566-2.024-5.566-4.418 0-2.391 2.551-4.418 5.566-4.418Zm-5.174.596c.15.003.308.044.46.124-.548.5-.982 1.076-1.278 1.726-.204-.509-.148-1.143.103-1.48a.863.863 0 0 1 .715-.37Zm10.348 0a.863.863 0 0 1 .715.37c.252.337.307.971.103 1.48a5.343 5.343 0 0 0-1.277-1.726c.151-.08.308-.121.46-.124ZM4.822 7.356c-.544 0-.987.534-.987 1.192 0 .657.443 1.192.987 1.192.545 0 .988-.535.988-1.192 0-.658-.443-1.192-.988-1.192Zm4.358 0c-.545 0-.988.534-.988 1.192 0 .657.443 1.192.988 1.192.544 0 .987-.535.987-1.192 0-.658-.443-1.192-.987-1.192Zm-4.885 4.048C4.64 12.27 5.713 13.11 7 13.11s2.377-.84 2.723-1.706c-.63.49-1.623.822-2.723.822-1.1 0-2.077-.331-2.706-.822Z"/></g></symbol><symbol id="slider-button-next" viewBox="0 0 14 8"><g fill="currentColor"><path d="M13.354 4.354a.5.5 0 0 0 0-.708L10.172.464a.5.5 0 0 0-.708.708L12.293 4 9.464 6.828a.5.5 0 1 0 .708.708l3.182-3.182ZM0 4.5h13v-1H0v1Z"/></g></symbol><symbol id="slider-button-prev" viewBox="0 0 14 8"><g fill="currentColor"><path d="M.646 4.354a.5.5 0 0 1 0-.708L3.828.464a.5.5 0 1 1 .708.708L1.707 4l2.829 2.828a.5.5 0 1 1-.708.708L.646 4.354ZM14 4.5H1v-1h13v1Z"/></g></symbol><symbol id="tours-link-arrow" viewBox="0 0 9 14"><g fill="none" stroke="currentColor" stroke-width="2">
  <path d="M1 13L7 7L0.999999 1"/>
</g></symbol><symbol id="tours-moon" viewBox="0 0 20 20"><g fill="none"><path d="M19.527 11.382a.7.7 0 0 0-.588.128 7.495 7.495 0 0 1-2.274 1.334 7.1 7.1 0 0 1-2.582.462A7.503 7.503 0 0 1 8.767 11.1a7.556 7.556 0 0 1-2.198-5.335c0-.872.153-1.718.409-2.488.28-.82.69-1.565 1.227-2.206a.656.656 0 0 0-.103-.923.701.701 0 0 0-.588-.128C5.342.61 3.45 1.918 2.096 3.662A10.18 10.18 0 0 0 0 9.843c0 2.796 1.125 5.335 2.965 7.182A10.066 10.066 0 0 0 10.12 20c2.352 0 4.524-.82 6.263-2.18a10.118 10.118 0 0 0 3.578-5.617c.128-.385-.077-.744-.435-.821Zm-3.91 5.36a8.715 8.715 0 0 1-5.444 1.899c-2.429 0-4.627-1-6.211-2.59A8.817 8.817 0 0 1 1.38 9.816c0-2.026.665-3.872 1.815-5.36a8.795 8.795 0 0 1 2.94-2.462c-.129.282-.256.564-.359.872-.332.923-.485 1.898-.485 2.924 0 2.436.997 4.668 2.581 6.258a8.816 8.816 0 0 0 6.237 2.59 8.53 8.53 0 0 0 3.041-.538c.333-.128.665-.257.972-.41a9.324 9.324 0 0 1-2.505 3.052Z" fill="#fff"/></g></symbol><symbol id="tours-pin" viewBox="0 0 9 12"><g fill="none">
  <path d="M4.49981 0C2.01874 0 0 1.98191 0 4.41796C0 5.05338 0.132472 5.66006 0.39354 6.2213C1.51862 8.63833 3.67571 11.1902 4.31017 11.9146C4.35771 11.9688 4.42701 12 4.49994 12C4.57287 12 4.64217 11.9688 4.6897 11.9146C5.32392 11.1903 7.48101 8.63857 8.60646 6.2213C8.86765 5.66006 9 5.05338 9 4.41796C8.99975 1.98191 6.98101 0 4.49981 0ZM4.49981 6.71267C3.21099 6.71267 2.16234 5.68315 2.16234 4.41784C2.16234 3.15241 3.21099 2.12289 4.49981 2.12289C5.78864 2.12289 6.83728 3.15241 6.83728 4.41784C6.83741 5.68315 5.78876 6.71267 4.49981 6.71267Z" fill="white"/>
</g></symbol><symbol id="tours-star" viewBox="0 0 15 14"><g clip-path="url(#a)"><path d="m7.745 10.605-.245-.138-.245.138-3.624 2.04.945-3.794.078-.31-.248-.2-3.118-2.522 4.145-.332.294-.023.122-.268L7.5 1.559l1.652 3.637.121.268.294.023 4.145.332-3.118 2.522-.247.2.077.31.945 3.794-3.624-2.04Z" stroke="#fff"/></g></symbol><symbol id="tours-sun" viewBox="0 0 20 20"><g fill="none"><path d="M13.545 6.455c-.9-.9-2.17-1.481-3.545-1.481a4.934 4.934 0 0 0-3.545 1.481c-.9.9-1.481 2.17-1.481 3.545 0 1.376.582 2.646 1.481 3.545.9.9 2.17 1.482 3.545 1.482a4.934 4.934 0 0 0 3.545-1.482c.9-.9 1.482-2.17 1.482-3.545a4.934 4.934 0 0 0-1.482-3.545Zm-.952 6.138A3.66 3.66 0 0 1 10 13.65a3.66 3.66 0 0 1-2.593-1.058A3.66 3.66 0 0 1 6.35 10a3.66 3.66 0 0 1 1.058-2.593A3.66 3.66 0 0 1 10 6.35a3.66 3.66 0 0 1 2.593 1.058A3.66 3.66 0 0 1 13.65 10a3.66 3.66 0 0 1-1.058 2.593ZM19.312 9.312h-2.037a.7.7 0 0 0-.688.688.7.7 0 0 0 .688.688h2.037A.7.7 0 0 0 20 10a.7.7 0 0 0-.688-.688ZM10 16.587a.7.7 0 0 0-.688.688v2.037A.7.7 0 0 0 10 20a.7.7 0 0 0 .688-.688v-2.037a.7.7 0 0 0-.688-.688ZM17.064 16.111l-1.456-1.455c-.238-.264-.687-.264-.952 0a.67.67 0 0 0 0 .952l1.455 1.455a.67.67 0 0 0 .953 0 .67.67 0 0 0 0-.952ZM10 0a.7.7 0 0 0-.688.688v2.037a.7.7 0 0 0 .688.688.7.7 0 0 0 .688-.688V.688A.7.7 0 0 0 10 0ZM17.09 2.937a.67.67 0 0 0-.952 0l-1.456 1.455a.67.67 0 0 0 0 .952c.239.264.688.264.953 0l1.455-1.455a.67.67 0 0 0 0-.952ZM2.725 9.312H.688A.7.7 0 0 0 0 10c0 .37.291.688.688.688h2.037A.7.7 0 0 0 3.413 10a.7.7 0 0 0-.688-.688ZM5.317 14.656c-.238-.264-.687-.264-.952 0L2.91 16.111a.67.67 0 0 0 0 .952.67.67 0 0 0 .952 0l1.455-1.455a.67.67 0 0 0 0-.952ZM5.317 4.392 3.862 2.937a.67.67 0 0 0-.952 0 .67.67 0 0 0 0 .952l1.455 1.455a.67.67 0 0 0 .952 0 .67.67 0 0 0 0-.952Z" fill="#fff"/></g></symbol><symbol id="trainers-vk" viewBox="0 0 14 8"><g fill="currentColor"><path d="M13.926 7.225a.967.967 0 0 0-.048-.091c-.243-.439-.707-.976-1.392-1.614l-.014-.015-.008-.007-.007-.007h-.007a8.422 8.422 0 0 1-.59-.599c-.152-.194-.185-.392-.103-.591.058-.151.277-.47.656-.956.2-.258.357-.465.474-.621.84-1.12 1.205-1.835 1.093-2.146l-.043-.073c-.03-.044-.105-.084-.226-.12a1.146 1.146 0 0 0-.467-.019l-2.099.015A.272.272 0 0 0 11 .384l-.095.022-.036.019-.029.022a.325.325 0 0 0-.08.076.499.499 0 0 0-.073.128 11.93 11.93 0 0 1-.78 1.643c-.18.301-.345.563-.496.784-.15.222-.277.385-.379.49a2.645 2.645 0 0 1-.277.251c-.082.064-.145.09-.19.08a5.363 5.363 0 0 1-.123-.029.485.485 0 0 1-.164-.178.802.802 0 0 1-.084-.285 3.144 3.144 0 0 1-.022-.646c.005-.151.008-.253.008-.307 0-.185.003-.386.01-.602l.019-.515c.005-.126.007-.26.007-.401a1.69 1.69 0 0 0-.026-.333A1.138 1.138 0 0 0 8.113.37a.393.393 0 0 0-.15-.175.842.842 0 0 0-.244-.1 4.843 4.843 0 0 0-.984-.094c-.904-.01-1.484.049-1.742.175a.982.982 0 0 0-.277.22c-.087.106-.1.165-.036.174.291.044.498.149.62.314l.043.088c.034.063.068.175.102.336.034.16.056.338.066.533.024.355.024.66 0 .912-.025.253-.048.45-.07.592a1.186 1.186 0 0 1-.186.503.126.126 0 0 1-.036.037.545.545 0 0 1-.197.036c-.068 0-.15-.034-.248-.102a1.75 1.75 0 0 1-.302-.281 3.76 3.76 0 0 1-.354-.5 8.73 8.73 0 0 1-.408-.76l-.116-.211a18.229 18.229 0 0 1-.3-.595c-.126-.26-.237-.512-.335-.756a.481.481 0 0 0-.174-.233L2.748.46a.773.773 0 0 0-.284-.11L.467.366C.263.366.124.412.05.505l-.03.043A.236.236 0 0 0 0 .665c0 .054.015.12.044.197.291.687.608 1.348.951 1.986.343.638.64 1.151.893 1.54.253.39.51.757.772 1.103.263.345.437.567.522.664.085.098.152.17.2.22l.182.174c.117.117.288.257.514.42.226.163.477.324.751.482.275.158.594.287.959.387.364.1.719.14 1.064.12h.838c.17-.014.299-.068.387-.16l.029-.037a.484.484 0 0 0 .054-.135.743.743 0 0 0 .026-.2c-.005-.21.01-.398.047-.566.036-.168.078-.295.124-.38a.933.933 0 0 1 .28-.321.477.477 0 0 1 .059-.026c.117-.039.254 0 .412.114.158.114.306.255.445.423.138.168.304.357.499.566.194.21.364.365.51.467l.146.088c.097.058.223.112.379.16.155.049.291.061.408.037l1.866-.03c.185 0 .328-.03.43-.09.102-.061.163-.128.182-.201a.566.566 0 0 0 .004-.249.923.923 0 0 0-.051-.193Z"/></g></symbol><symbol id="training-icon-1"><g fill="none"><g clip-path="url(#a)" fill="#2D383F"><path d="M24.17 22.28V6.701a.463.463 0 0 0-.602-.463v.023l-2.084.653a6.253 6.253 0 0 0 .385-1.82 5.094 5.094 0 0 0-10.189 0 6.02 6.02 0 0 0 .357 1.737L8.59 5.599a.493.493 0 0 0-.12 0h-.037a.463.463 0 0 0-.162.032l-7.146 2.78a.463.463 0 0 0-.296.388V24.396a.463.463 0 0 0 .63.431l6.983-2.704 7.966 2.853c.096.032.2.032.296 0l7.141-2.233a.463.463 0 0 0 .324-.463ZM16.774.926a4.168 4.168 0 0 1 4.168 4.168c0 1.811-2.718 6.813-4.168 9.262-1.449-2.468-4.168-7.474-4.168-9.262A4.168 4.168 0 0 1 16.774.926Zm6.484 21.035-6.233 1.95v-3.534a.463.463 0 0 0-.927 0v3.501l-7.196-2.575V18.34a.463.463 0 0 0-.927 0v2.964l-6.22 2.422v-7.16l2.289-.926a.463.463 0 1 0-.343-.856l-1.945.782V9.12l6.22-2.409V8.1a.463.463 0 0 0 .926 0V6.692l3.552 1.274a64.337 64.337 0 0 0 3.922 7.558.463.463 0 0 0 .792 0 64.587 64.587 0 0 0 3.909-7.512l2.167-.68.014 7.59-2.348.57a.466.466 0 1 0 .111.925.46.46 0 0 0 .111 0l2.126-.518v6.062Z"/><path d="M16.756 2.403a2.69 2.69 0 1 0 0 5.382 2.69 2.69 0 0 0 0-5.382Zm0 4.455a1.77 1.77 0 0 1-1.746-1.764h-.019a1.764 1.764 0 1 1 1.765 1.764ZM10.698 13.967v.014l-2.241-.968a.463.463 0 0 0-.357 0l-1.894.764a.464.464 0 1 0 .347.862l1.714-.69 2.06.87a.464.464 0 0 0 .186.037.463.463 0 0 0 .185-.889ZM18.27 16.616a.463.463 0 0 0-.523-.32l.004-.036-1.148.278-1.945-.843a.465.465 0 1 0-.37.852l2.083.926a.462.462 0 0 0 .186.037h.11l1.297-.315a.463.463 0 0 0 .306-.579Z"/></g></g></symbol><symbol id="training-icon-2"><g fill="none"><path d="M23.658 16.616c.746-2.335.132-4.986-.52-6.822a.427.427 0 0 0-.063-.2 15.949 15.949 0 0 0-.601-1.441.852.852 0 0 0 .537-.784v-3.55a.852.852 0 0 0-.853-.852h-10.47a.426.426 0 0 0-.425.452c.145 2.557-.043 4.29-.584 5.514a.376.376 0 0 0-.03.038.426.426 0 0 0 0 .064 4.408 4.408 0 0 1-.826 1.206l-.039.026v.03c-.5.476-1.075.865-1.704 1.15-1.096.486-2.22.904-3.366 1.253l-.218.072C.512 14.093-.008 16.488.001 17.689a.409.409 0 0 0 0 .051v3.043c0 .148.078.285.204.362.977.594 2.03 1.05 3.132 1.355a.426.426 0 0 0 .541-.426v-.098h.627v.426a.426.426 0 0 0 .358.426c.37.06.741.107 1.103.137a.426.426 0 0 0 .46-.427v-.537h.627v.606c0 .235.19.426.426.426.358 0 .716 0 1.1-.051a.426.426 0 0 0 .391-.427v-.553h.627v.375a.426.426 0 0 0 .494.426c.782-.12 1.553-.304 2.305-.55l.068-.03c2.983-1.704 4.875-.302 4.952-.243.074.058.166.09.26.09h.528c.235 0 .426-.191.426-.426v-.72h.61v.711c0 .235.19.426.426.426h1.372c.235 0 .426-.19.426-.426v-.712h.63v.712c0 .235.191.426.427.426h1.052c.235 0 .426-.19.426-.426v-4.593a.426.426 0 0 0-.34-.427ZM13.547 3.828h8.59v3.528h-8.59V3.828ZM8.19 12.325l.004.025c.35.284.672.599.963.942a.805.805 0 0 0-.115.426.814.814 0 1 0 .886-.805 6.572 6.572 0 0 0-.916-1.01c.38-.217.739-.471 1.07-.759.413.388.797.805 1.15 1.249a.814.814 0 1 0 .763-.546h-.103c-.373-.47-.78-.913-1.218-1.325.203-.25.383-.518.537-.8.66.343 1.297.727 1.909 1.15a.822.822 0 1 0 .456-.73 18.85 18.85 0 0 0-2.007-1.184c.464-1.235.664-2.876.57-5.113h.559v3.528c0 .47.381.852.852.852h7.985c.111.226.299.618.503 1.13h-.175a4.687 4.687 0 0 0-2.76 8.45c-3.448.907-8.634 1.985-12.997 1.704.805-3.217-.158-5.199-.784-6.068.975-.32 1.933-.693 2.868-1.116Zm-3.725 1.359c.46.541 1.662 2.36.78 5.706a10.706 10.706 0 0 1-4.372-1.321 2.709 2.709 0 0 1-.03-.294v-.03c-.034-.908.307-2.872 3.622-4.061Zm18.48 7.525v-.712a.426.426 0 0 0-.425-.426h-1.479a.426.426 0 0 0-.426.426v.712h-.524v-.712a.426.426 0 0 0-.426-.426h-1.47a.426.426 0 0 0-.427.426v.695c-.579-.362-2.697-1.415-5.7.264-.535.177-1.08.319-1.633.426v-.294a.426.426 0 0 0-.426-.426H8.54a.426.426 0 0 0-.426.426v.584h-.217v-.597a.426.426 0 0 0-.427-.426H5.992a.426.426 0 0 0-.426.426v.508l-.218-.03v-.478a.426.426 0 0 0-.426-.426H3.444a.426.426 0 0 0-.426.375 11.48 11.48 0 0 1-2.174-.976v-1.525c1.858.984 4.262 1.355 6.818 1.355 6.792 0 14.565-2.6 15.48-2.91l.005 3.741h-.2Zm-.208-4.495c-.362.119-1.253.426-2.484.754a3.835 3.835 0 0 1 2.113-7.261l.005.013c.626 1.806 1.188 4.384.366 6.493Z" fill="#2D383F"/><path d="M15.187 4.344a1.24 1.24 0 1 0 0 2.48 1.24 1.24 0 0 0 0-2.48Zm0 1.627a.388.388 0 1 1 0-.775.388.388 0 0 1 0 .775Z" fill="#2D383F"/></g></symbol><symbol id="training-icon-3"><g fill="none"><g clip-path="url(#a)"><path d="m23.625 17.637-4.515-5.165h2.181a.461.461 0 0 0 .365-.742L18.03 6.966h1.845a.461.461 0 0 0 .345-.765l-4.435-5.045a.461.461 0 0 0-.692 0l-4.44 5.04a.461.461 0 0 0 .345.77h1.868L11.75 8.423 8.763 5.025a.461.461 0 0 0-.692 0L4.276 9.336a.461.461 0 0 0 .346.766h1.462l-3.035 3.97a.461.461 0 0 0 .365.733H5.12L1.37 19.117a.461.461 0 0 0 .346.76h5.1v3.228c0 .494.4.895.894.895h1.407a.895.895 0 0 0 .899-.89V19.878h3.827v3.227c0 .494.4.895.895.895h1.406c.494 0 .895-.4.895-.895v-4.703h6.239a.461.461 0 0 0 .346-.765Zm-14.53 5.44-1.356.028-.028-3.227h1.384v3.2Zm4.75-4.122H2.73l3.772-4.302a.461.461 0 0 0-.355-.77H4.35l3.034-3.97a.461.461 0 0 0-.364-.743H5.636l2.767-3.15 2.767 3.141-1.946 2.573a.461.461 0 0 0 .364.743h2.186L7.259 17.64a.461.461 0 0 0 .346.766h6.24v.548Zm2.273 4.114-1.351.036-.028-4.703h1.383l-.004 4.666Zm.027-5.59H8.62l4.514-5.164a.461.461 0 0 0-.346-.765h-2.264l3.643-4.768a.461.461 0 0 0-.364-.738h-1.766l3.421-3.883 3.403 3.883h-1.78a.461.461 0 0 0-.364.742l3.62 4.764H18.09a.461.461 0 0 0-.346.765l4.515 5.165h-6.115Z" fill="#2D383F"/></g></g></symbol><symbol id="training-icon-4"><g fill="none"><g clip-path="url(#a)" fill="#2D383F"><path d="m23.415 24.188-4.04-9.398-3.817-8.883a.477.477 0 0 0-.877 0l-3.407 7.905-1.335 3.106-2.93-6.76a.477.477 0 0 0-.877 0l-2.753 6.359-3.34 7.666a.477.477 0 0 0 .44.668h22.498a.477.477 0 0 0 .438-.663Zm-8.3-16.892 3.096 7.198h-1.088l-1.965-2.17a.477.477 0 0 0-.754.062l-.735 1.135h-1.23l2.676-6.225ZM6.57 11.532l2.447 5.658H7.682a.477.477 0 0 0-.4.22l-.478.758-1.23-1.737a.477.477 0 0 0-.391-.205h-.635l2.023-4.694ZM1.228 23.897l2.905-6.717h.801l1.489 2.123a.477.477 0 0 0 .391.205.477.477 0 0 0 .391-.22l.735-1.135h1.488l2.486 5.725-10.686.019Zm11.73 0-2.5-5.772 1.57-3.65h1.908a.477.477 0 0 0 .401-.22l.53-.815 1.688 1.865c.09.1.219.157.353.158h1.708l3.63 8.448-9.288-.014ZM7.611 2.082a2.252 2.252 0 0 0-4.35.806 2.18 2.18 0 0 0 0 .248 2.252 2.252 0 0 0 .906 4.294l.024.019H7.53a2.684 2.684 0 1 0 .081-5.367Zm-.053 4.427H4.22a1.3 1.3 0 1 1-.267-2.586.477.477 0 0 0 .358-.62 1.298 1.298 0 1 1 2.505-.644c.043.25.276.423.529.391.071-.004.143-.004.214 0a1.73 1.73 0 0 1 0 3.459ZM23.697 2.64a2.184 2.184 0 0 0 0-.248 2.252 2.252 0 0 0-4.343-.825 2.684 2.684 0 0 0 .097 5.366h3.34a2.252 2.252 0 0 0 .906-4.293Zm.359 2.308a1.298 1.298 0 0 1-1.252 1.027h-3.339a1.73 1.73 0 0 1 0-3.46c.072-.004.143-.004.215 0a.477.477 0 0 0 .515-.371 1.298 1.298 0 1 1 2.505.644.477.477 0 0 0 .357.62c.701.15 1.148.839.999 1.54Z"/></g></g></symbol><symbol id="video-arrow" viewBox="0 0 14 26"><g fill="none" stroke="currentColor"><path d="M13 13 1 2v22l12-11Z" fill="#fff"/></g></symbol><symbol id="vk" viewBox="0 0 16 9"><g fill="currentColor"><path d="M15.857 8.027c-.043-.07-.309-.64-1.589-1.812-1.34-1.226-1.16-1.027.454-3.148.983-1.291 1.376-2.08 1.253-2.417-.117-.322-.84-.237-.84-.237l-2.404.014s-.178-.024-.31.054c-.13.077-.213.255-.213.255s-.38 1-.889 1.85c-1.071 1.793-1.5 1.887-1.675 1.776-.407-.26-.305-1.043-.305-1.6 0-1.738.267-2.462-.521-2.65C8.556.05 8.364.01 7.695.002 6.837-.007 6.11.005 5.699.203c-.274.132-.485.427-.356.444.159.02.519.095.71.352.247.33.238 1.073.238 1.073s.142 2.046-.331 2.3c-.325.175-.77-.18-1.725-1.809-.49-.833-.86-1.754-.86-1.754s-.07-.172-.198-.264c-.154-.111-.37-.147-.37-.147L.521.412S.178.422.052.57C-.06.7.043.97.043.97s1.79 4.128 3.817 6.21c1.859 1.907 3.969 1.782 3.969 1.782h.956s.289-.031.436-.188c.136-.144.13-.414.13-.414s-.018-1.265.578-1.452c.587-.183 1.341 1.223 2.14 1.764.604.41 1.063.32 1.063.32l2.137-.03s1.118-.068.588-.935Z"/></g></symbol></svg>